<svg xmlns="http://www.w3.org/2000/svg" width="423.6" height="500.004" viewBox="0 0 423.6 500.004">
  <g id="Слой_2" data-name="Слой 2" transform="translate(0 0.004)">
    <g id="Слой_1" data-name="Слой 1">
      <circle id="Ellipse_32" data-name="Ellipse 32" cx="51.54" cy="51.54" r="51.54" transform="translate(83.6 225.35)" fill="#ff7b7b"/>
      <path id="Path_173" data-name="Path 173" d="M155.11,324.28A51.56,51.56,0,0,1,111.33,231a55.5,55.5,0,0,0,40.55,93.38C153,324.37,154.05,324.34,155.11,324.28Z" fill="#e26d6d"/>
      <circle id="Ellipse_33" data-name="Ellipse 33" cx="4.88" cy="4.88" r="4.88" transform="translate(144.62 240.24)" fill="#e26d6d"/>
      <circle id="Ellipse_34" data-name="Ellipse 34" cx="4.88" cy="4.88" r="4.88" transform="translate(100.49 243.31)" fill="#f4f6f9"/>
      <circle id="Ellipse_35" data-name="Ellipse 35" cx="3.66" cy="3.66" r="3.66" transform="translate(119.14 241.46)" fill="#f4f6f9"/>
      <circle id="Ellipse_36" data-name="Ellipse 36" cx="8.17" cy="8.17" r="8.17" transform="translate(121.32 263.23)" fill="#e26d6d"/>
      <circle id="Ellipse_37" data-name="Ellipse 37" cx="8.17" cy="8.17" r="8.17" transform="translate(93.88 279.48)" fill="#f4f6f9"/>
      <circle id="Ellipse_38" data-name="Ellipse 38" cx="8.17" cy="8.17" r="8.17" transform="translate(131.77 292.31)" fill="#e26d6d"/>
      <circle id="Ellipse_39" data-name="Ellipse 39" cx="4.88" cy="4.88" r="4.88" transform="translate(161.09 290.72)" fill="#d16969"/>
      <circle id="Ellipse_40" data-name="Ellipse 40" cx="3.66" cy="3.66" r="3.66" transform="translate(111.47 307.44)" fill="#d16969"/>
      <circle id="Ellipse_41" data-name="Ellipse 41" cx="3.66" cy="3.66" r="3.66" transform="translate(99.84 266.06)" fill="#d16969"/>
      <circle id="Ellipse_42" data-name="Ellipse 42" cx="4.88" cy="4.88" r="4.88" transform="translate(156.21 261.26)" fill="#d16969"/>
      <path id="Path_174" data-name="Path 174" d="M129.49,225.66c4.12-8.73,3.63-24,3.63-24h4.3s.53,16.91,3.73,24" fill="#ff7b7b"/>
      <path id="Path_175" data-name="Path 175" d="M137.48,203h-.07a10.36,10.36,0,0,1-4.28-.67v-.68h4.3S137.45,202.43,137.48,203Z" fill="#e26d6d"/>
      <ellipse id="Ellipse_43" data-name="Ellipse 43" cx="4.93" cy="2.46" rx="4.93" ry="2.46" transform="translate(130.39 197.12)" fill="#ff7b7b"/>
      <ellipse id="Ellipse_44" data-name="Ellipse 44" cx="0.94" cy="0.42" rx="0.94" ry="0.42" transform="translate(131.717 198.227) rotate(-13.18)" fill="#f4f6f9"/>
      <path id="Path_176" data-name="Path 176" d="M147.19,227.7c5.25-5.23,8.86-16.38,8.86-16.38l3.11,1.12s-4,12.35-3.55,18.32" fill="#ff7b7b"/>
      <path id="Path_177" data-name="Path 177" d="M158.85,213.42h0a8.08,8.08,0,0,1-2.91-1.6l.16-.49,3.11,1.12S159,213,158.85,213.42Z" fill="#e26d6d"/>
      <ellipse id="Ellipse_45" data-name="Ellipse 45" cx="1.89" cy="3.78" rx="1.89" ry="3.78" transform="translate(153.993 210.867) rotate(-70.19)" fill="#ff7b7b"/>
      <ellipse id="Ellipse_46" data-name="Ellipse 46" cx="0.32" cy="0.72" rx="0.32" ry="0.72" transform="translate(155.853 209.089) rotate(-83.37)" fill="#f4f6f9"/>
      <path id="Path_178" data-name="Path 178" d="M158.29,232.53c5.44-3.33,10.71-11.95,10.71-11.95l2.37,1.56s-5.84,9.54-6.64,14.64" fill="#ff7b7b"/>
      <path id="Path_179" data-name="Path 179" d="M170.92,222.9h0a6.82,6.82,0,0,1-2.12-1.93l.24-.37,2.37,1.56Z" fill="#e26d6d"/>
      <ellipse id="Ellipse_47" data-name="Ellipse 47" cx="1.63" cy="3.26" rx="1.63" ry="3.26" transform="matrix(0.548, -0.836, 0.836, 0.548, 167.359, 219.81)" fill="#ff7b7b"/>
      <ellipse id="Ellipse_48" data-name="Ellipse 48" cx="0.28" cy="0.62" rx="0.28" ry="0.62" transform="translate(169.266 218.689) rotate(-69.93)" fill="#f4f6f9"/>
      <path id="Path_180" data-name="Path 180" d="M114.51,231.3c.73-6.34-2.8-15.8-2.8-15.8l2.69-.91s3.91,10.49,7.43,14.27" fill="#ff7b7b"/>
      <path id="Path_181" data-name="Path 181" d="M114.72,215.43h0a6.77,6.77,0,0,1-2.82.48l-.15-.42,2.69-.91Z" fill="#e26d6d"/>
      <ellipse id="Ellipse_49" data-name="Ellipse 49" cx="3.26" cy="1.63" rx="3.26" ry="1.63" transform="translate(109.031 213.224) rotate(-18.66)" fill="#ff7b7b"/>
      <ellipse id="Ellipse_50" data-name="Ellipse 50" cx="0.62" cy="0.28" rx="0.62" ry="0.28" transform="matrix(0.85, -0.528, 0.528, 0.85, 110.095, 213.628)" fill="#f4f6f9"/>
      <path id="Path_182" data-name="Path 182" d="M184.05,266.33c6,2.06,16,.59,16,.59l.32,2.83s-11.07,1.61-15.51,4.25" fill="#ff7b7b"/>
      <path id="Path_183" data-name="Path 183" d="M199.53,269.89v-.05a6.81,6.81,0,0,1,.13-2.86l.44-.06.32,2.83Z" fill="#e26d6d"/>
      <ellipse id="Ellipse_51" data-name="Ellipse 51" cx="1.63" cy="3.26" rx="1.63" ry="3.26" transform="matrix(0.994, -0.113, 0.113, 0.994, 199.625, 265.166)" fill="#ff7b7b"/>
      <ellipse id="Ellipse_52" data-name="Ellipse 52" cx="0.28" cy="0.62" rx="0.28" ry="0.62" transform="translate(201.717 265.938) rotate(-19.67)" fill="#f4f6f9"/>
      <path id="Path_184" data-name="Path 184" d="M185.18,277c5.47,3.3,15.54,4,15.54,4l-.29,2.83s-11.16-.78-16.06.85" fill="#ff7b7b"/>
      <path id="Path_185" data-name="Path 185" d="M199.54,283.79h0a6.68,6.68,0,0,1,.73-2.77h.44l-.29,2.83Z" fill="#e26d6d"/>
      <ellipse id="Ellipse_53" data-name="Ellipse 53" cx="3.26" cy="1.63" rx="3.26" ry="1.63" transform="matrix(0.102, -0.995, 0.995, 0.102, 199.99, 285.678)" fill="#ff7b7b"/>
      <ellipse id="Ellipse_54" data-name="Ellipse 54" cx="0.28" cy="0.619" rx="0.28" ry="0.619" transform="translate(202.75 279.458) rotate(-7.481)" fill="#f4f6f9"/>
      <path id="Path_186" data-name="Path 186" d="M180.68,297.63c3.62,5.26,12.51,10.05,12.51,10.05l-1.43,2.46s-9.84-5.32-15-5.85" fill="#ff7b7b"/>
      <path id="Path_187" data-name="Path 187" d="M191,309.72h0a6.87,6.87,0,0,1,1.81-2.23l.39.22-1.43,2.46Z" fill="#e26d6d"/>
      <ellipse id="Ellipse_55" data-name="Ellipse 55" cx="3.26" cy="1.63" rx="3.26" ry="1.63" transform="matrix(0.503, -0.865, 0.865, 0.503, 190.608, 311.613)" fill="#ff7b7b"/>
      <ellipse id="Ellipse_56" data-name="Ellipse 56" cx="0.62" cy="0.28" rx="0.62" ry="0.28" transform="translate(194.728 309.011) rotate(-73.01)" fill="#f4f6f9"/>
      <path id="Path_188" data-name="Path 188" d="M180.54,254.44c7.38.65,18.24-3.77,18.24-3.77l1.15,3.1s-12,4.88-16.32,9.08" fill="#ff7b7b"/>
      <path id="Path_189" data-name="Path 189" d="M199,254.17h0a7.83,7.83,0,0,1-.65-3.26l.48-.19,1.15,3.1Z" fill="#e26d6d"/>
      <ellipse id="Ellipse_57" data-name="Ellipse 57" cx="1.89" cy="3.78" rx="1.89" ry="3.78" transform="translate(197.797 248.802) rotate(-20.27)" fill="#ff7b7b"/>
      <ellipse id="Ellipse_58" data-name="Ellipse 58" cx="0.32" cy="0.72" rx="0.32" ry="0.72" transform="matrix(0.834, -0.551, 0.551, 0.834, 200.351, 249.079)" fill="#f4f6f9"/>
      <path id="Path_190" data-name="Path 190" d="M184.56,288c5.33,5.15,16.55,8.55,16.55,8.55l-1.06,3.13s-12.42-3.78-18.39-3.2" fill="#ff7b7b"/>
      <path id="Path_191" data-name="Path 191" d="M199.06,299.36h0a8,8,0,0,1,1.55-2.95l.49.16-1.06,3.13Z" fill="#e26d6d"/>
      <ellipse id="Ellipse_59" data-name="Ellipse 59" cx="3.78" cy="1.89" rx="3.78" ry="1.89" transform="translate(199.085 301.63) rotate(-71.3)" fill="#ff7b7b"/>
      <ellipse id="Ellipse_60" data-name="Ellipse 60" cx="0.72" cy="0.32" rx="0.72" ry="0.32" transform="translate(203.185 297.723) rotate(-84.48)" fill="#f4f6f9"/>
      <path id="Path_192" data-name="Path 192" d="M165,317.81c.62,7.38,6.81,17.34,6.81,17.34l-2.86,1.65s-6.85-11-11.72-14.53" fill="#ff7b7b"/>
      <path id="Path_193" data-name="Path 193" d="M168.39,335.93h0a8,8,0,0,1,3.1-1.2l.27.45-2.86,1.65Z" fill="#e26d6d"/>
      <ellipse id="Ellipse_61" data-name="Ellipse 61" cx="3.78" cy="1.89" rx="3.78" ry="1.89" transform="matrix(0.865, -0.501, 0.501, 0.865, 166.92, 337.644)" fill="#ff7b7b"/>
      <ellipse id="Ellipse_62" data-name="Ellipse 62" cx="0.72" cy="0.32" rx="0.72" ry="0.32" transform="translate(172.576 337.396) rotate(-43.24)" fill="#f4f6f9"/>
      <path id="Path_194" data-name="Path 194" d="M169.74,238.69C179,236,190.1,225.5,190.1,225.5l2.86,3.22s-12.31,11.6-15.51,18.72" fill="#ff7b7b"/>
      <path id="Path_195" data-name="Path 195" d="M192,229.66h0a10.33,10.33,0,0,1-2.33-3.65l.49-.46,2.86,3.22Z" fill="#e26d6d"/>
      <ellipse id="Ellipse_63" data-name="Ellipse 63" cx="2.46" cy="4.93" rx="2.46" ry="4.93" transform="matrix(0.748, -0.663, 0.663, 0.748, 188.016, 223.688)" fill="#ff7b7b"/>
      <ellipse id="Ellipse_64" data-name="Ellipse 64" cx="0.42" cy="0.94" rx="0.42" ry="0.94" transform="matrix(0.578, -0.816, 0.816, 0.578, 191.264, 222.819)" fill="#f4f6f9"/>
      <path id="Path_196" data-name="Path 196" d="M178.25,305.15c4.1,8.74,16.18,18.07,16.18,18.07l-2.74,3.32s-13.37-10.36-20.9-12.42" fill="#ff7b7b"/>
      <path id="Path_197" data-name="Path 197" d="M190.62,325.73v-.05a10.19,10.19,0,0,1,3.24-2.87l.53.41-2.74,3.32Z" fill="#e26d6d"/>
      <ellipse id="Ellipse_65" data-name="Ellipse 65" cx="4.93" cy="2.46" rx="4.93" ry="2.46" transform="translate(189.604 328.461) rotate(-50.46)" fill="#ff7b7b"/>
      <ellipse id="Ellipse_66" data-name="Ellipse 66" cx="0.94" cy="0.42" rx="0.94" ry="0.42" transform="translate(196.395 325.672) rotate(-63.63)" fill="#f4f6f9"/>
      <path id="Path_198" data-name="Path 198" d="M126.33,327.68c-6.39,7.24-10.16,22-10.16,22l-4.13-1.2s4.19-16.38,3.09-24.11" fill="#e26d6d"/>
      <path id="Path_199" data-name="Path 199" d="M112.36,347.2h.06a10.34,10.34,0,0,1,3.93,1.84l-.18.65-4.13-1.2Z" fill="#d16969"/>
      <ellipse id="Ellipse_67" data-name="Ellipse 67" cx="2.46" cy="4.93" rx="2.46" ry="4.93" transform="matrix(0.278, -0.961, 0.961, 0.278, 108.057, 352.099)" fill="#e26d6d"/>
      <ellipse id="Ellipse_68" data-name="Ellipse 68" cx="0.42" cy="0.94" rx="0.42" ry="0.94" transform="translate(114.692 353.291) rotate(-87.04)" fill="#f4f6f9"/>
      <path id="Path_200" data-name="Path 200" d="M90.54,302.75c-9.64-.26-23.4,6.35-23.4,6.35l-1.74-3.93s15.25-7.31,20.47-13.11" fill="#e26d6d"/>
      <path id="Path_201" data-name="Path 201" d="M66.61,304.57v.06a10.4,10.4,0,0,1,1.11,4.19l-.61.28-1.74-3.93Z" fill="#d16969"/>
      <ellipse id="Ellipse_69" data-name="Ellipse 69" cx="2.46" cy="4.93" rx="2.46" ry="4.93" transform="translate(60.105 304.405) rotate(-23.81)" fill="#e26d6d"/>
      <ellipse id="Ellipse_70" data-name="Ellipse 70" cx="0.42" cy="0.94" rx="0.42" ry="0.94" transform="matrix(0.799, -0.602, 0.602, 0.799, 63.416, 310.301)" fill="#f4f6f9"/>
      <path id="Path_202" data-name="Path 202" d="M88.92,254.06c-5.13-8.17-18.25-16-18.25-16L73,234.47s14.53,8.66,22.26,9.79" fill="#e26d6d"/>
      <path id="Path_203" data-name="Path 203" d="M74.15,235.14v.06a10.19,10.19,0,0,1-2.88,3.24l-.57-.35,2.3-3.62Z" fill="#d16969"/>
      <ellipse id="Ellipse_71" data-name="Ellipse 71" cx="4.93" cy="2.46" rx="4.93" ry="2.46" transform="translate(65.368 237.931) rotate(-57.42)" fill="#e26d6d"/>
      <ellipse id="Ellipse_72" data-name="Ellipse 72" cx="0.94" cy="0.42" rx="0.94" ry="0.42" transform="translate(67.007 237.408) rotate(-70.6)" fill="#f4f6f9"/>
      <path id="Path_204" data-name="Path 204" d="M101,240.19c-1.68-7.26-9.27-16.27-9.27-16.27l2.6-2s8.41,10,13.76,12.76" fill="#e26d6d"/>
      <path id="Path_205" data-name="Path 205" d="M95.05,222.65h0a8,8,0,0,1-2.91,1.63l-.33-.4,2.6-2Z" fill="#d16969"/>
      <ellipse id="Ellipse_73" data-name="Ellipse 73" cx="3.8" cy="1.9" rx="3.8" ry="1.9" transform="translate(87.932 222.47) rotate(-38.3)" fill="#e26d6d"/>
      <ellipse id="Ellipse_74" data-name="Ellipse 74" cx="0.73" cy="0.32" rx="0.73" ry="0.32" transform="translate(89.265 222.523) rotate(-51.48)" fill="#f4f6f9"/>
      <path id="Path_206" data-name="Path 206" d="M86,286.42c-7-2.41-18.71-.73-18.71-.73l-.37-3.29S79.8,280.54,85,277.47" fill="#e26d6d"/>
      <path id="Path_207" data-name="Path 207" d="M67.91,282.24v.05a7.87,7.87,0,0,1-.15,3.34l-.51.06-.37-3.29Z" fill="#d16969"/>
      <ellipse id="Ellipse_75" data-name="Ellipse 75" cx="1.9" cy="3.8" rx="1.9" ry="3.8" transform="matrix(0.994, -0.111, 0.111, 0.994, 63.152, 280.613)" fill="#e26d6d"/>
      <ellipse id="Ellipse_76" data-name="Ellipse 76" cx="0.32" cy="0.73" rx="0.32" ry="0.73" transform="translate(64.227 285.714) rotate(-19.55)" fill="#f4f6f9"/>
      <path id="Path_208" data-name="Path 208" d="M111.53,321.08c-6.32,3.95-12.36,14.06-12.36,14.06l-2.79-1.79s6.71-11.2,7.59-17.16" fill="#e26d6d"/>
      <path id="Path_209" data-name="Path 209" d="M96.9,332.45h0a7.891,7.891,0,0,1,2.5,2.22l-.27.44-2.79-1.79Z" fill="#d16969"/>
      <ellipse id="Ellipse_77" data-name="Ellipse 77" cx="1.897" cy="3.795" rx="1.897" ry="3.795" transform="matrix(0.541, -0.841, 0.841, 0.541, 92.129, 335.156)" fill="#e26d6d"/>
      <ellipse id="Ellipse_78" data-name="Ellipse 78" cx="0.32" cy="0.73" rx="0.32" ry="0.73" transform="translate(97.281 337.49) rotate(-70.47)" fill="#f4f6f9"/>
      <path id="Path_210" data-name="Path 210" d="M148,324.83c-1.35,5.85,1,15.05,1,15.05l-2.62.57s-2.55-10.2-5.44-14.1" fill="#e26d6d"/>
      <path id="Path_211" data-name="Path 211" d="M146.12,339.64h0a6.34,6.34,0,0,1,2.69-.16l.1.41-2.62.57A8.367,8.367,0,0,0,146.12,339.64Z" fill="#d16969"/>
      <ellipse id="Ellipse_79" data-name="Ellipse 79" cx="3.06" cy="1.53" rx="3.06" ry="1.53" transform="translate(144.544 340.613) rotate(-12.29)" fill="#e26d6d"/>
      <ellipse id="Ellipse_80" data-name="Ellipse 80" cx="0.59" cy="0.26" rx="0.59" ry="0.26" transform="translate(148.972 341.827) rotate(-25.47)" fill="#f4f6f9"/>
      <path id="Path_212" data-name="Path 212" d="M139.85,326.77c-3.08,6.78-2.54,18.55-2.54,18.55l-3.32.05s-.59-13-3.14-18.5" fill="#e26d6d"/>
      <path id="Path_213" data-name="Path 213" d="M133.93,344.33h0a7.86,7.86,0,0,1,3.31.47v.52l-3.32.05A4.33,4.33,0,0,0,133.93,344.33Z" fill="#d16969"/>
      <ellipse id="Ellipse_81" data-name="Ellipse 81" cx="3.8" cy="1.9" rx="3.8" ry="1.9" transform="translate(131.816 345.111) rotate(-0.81)" fill="#e26d6d"/>
      <ellipse id="Ellipse_82" data-name="Ellipse 82" cx="0.73" cy="0.32" rx="0.73" ry="0.32" transform="matrix(0.97, -0.242, 0.242, 0.97, 136.897, 347.67)" fill="#f4f6f9"/>
      <path id="Path_214" data-name="Path 214" d="M84.7,266.8c-4.78-3.55-14.08-5.09-14.08-5.09l.52-2.6s10.3,1.72,15,.63" fill="#e26d6d"/>
      <path id="Path_215" data-name="Path 215" d="M72,259.23h0a6.13,6.13,0,0,1-.92,2.51l-.41-.07.52-2.6Z" fill="#d16969"/>
      <ellipse id="Ellipse_83" data-name="Ellipse 83" cx="3.04" cy="1.52" rx="3.04" ry="1.52" transform="translate(67.526 262.802) rotate(-78.73)" fill="#e26d6d"/>
      <ellipse id="Ellipse_84" data-name="Ellipse 84" cx="0.26" cy="0.58" rx="0.26" ry="0.58" transform="translate(68.34 260.986) rotate(-1.91)" fill="#f4f6f9"/>
      <path id="Path_216" data-name="Path 216" d="M101.59,313.15c-6.1,2-13.28,9.12-13.28,9.12l-2-2.09s8-7.92,10-12.7" fill="#e26d6d"/>
      <path id="Path_217" data-name="Path 217" d="M87,319.54h0A6.82,6.82,0,0,1,88.63,322l-.32.32-2-2.09S86.72,319.83,87,319.54Z" fill="#d16969"/>
      <ellipse id="Ellipse_85" data-name="Ellipse 85" cx="1.64" cy="3.27" rx="1.64" ry="3.27" transform="matrix(0.73, -0.683, 0.683, 0.73, 82.868, 320.886)" fill="#e26d6d"/>
      <ellipse id="Ellipse_86" data-name="Ellipse 86" cx="0.28" cy="0.62" rx="0.28" ry="0.62" transform="matrix(0.555, -0.832, 0.832, 0.555, 86.243, 323.823)" fill="#f4f6f9"/>
      <circle id="Ellipse_87" data-name="Ellipse 87" cx="27.18" cy="27.18" r="27.18" transform="translate(191.77 124.3)" fill="#ff7b7b"/>
      <path id="Path_218" data-name="Path 218" d="M229.48,176.48a27.19,27.19,0,0,1-23.09-49.21,29.27,29.27,0,0,0,21.39,49.25C228.35,176.52,228.92,176.51,229.48,176.48Z" fill="#e26d6d"/>
      <circle id="Ellipse_88" data-name="Ellipse 88" cx="2.57" cy="2.57" r="2.57" transform="translate(223.95 132.15)" fill="#e26d6d"/>
      <circle id="Ellipse_89" data-name="Ellipse 89" cx="2.57" cy="2.57" r="2.57" transform="translate(200.68 133.78)" fill="#f4f6f9"/>
      <circle id="Ellipse_90" data-name="Ellipse 90" cx="1.93" cy="1.93" r="1.93" transform="translate(210.51 132.79)" fill="#f4f6f9"/>
      <circle id="Ellipse_91" data-name="Ellipse 91" cx="4.31" cy="4.31" r="4.31" transform="translate(211.66 144.27)" fill="#e26d6d"/>
      <circle id="Ellipse_92" data-name="Ellipse 92" cx="4.31" cy="4.31" r="4.31" transform="translate(197.19 152.85)" fill="#f4f6f9"/>
      <circle id="Ellipse_93" data-name="Ellipse 93" cx="4.31" cy="4.31" r="4.31" transform="translate(217.17 159.61)" fill="#e26d6d"/>
      <circle id="Ellipse_94" data-name="Ellipse 94" cx="2.57" cy="2.57" r="2.57" transform="translate(232.64 158.78)" fill="#d16969"/>
      <circle id="Ellipse_95" data-name="Ellipse 95" cx="1.93" cy="1.93" r="1.93" transform="translate(206.47 167.59)" fill="#d16969"/>
      <circle id="Ellipse_96" data-name="Ellipse 96" cx="1.93" cy="1.93" r="1.93" transform="translate(200.33 145.77)" fill="#d16969"/>
      <circle id="Ellipse_97" data-name="Ellipse 97" cx="2.57" cy="2.57" r="2.57" transform="translate(230.07 143.24)" fill="#d16969"/>
      <path id="Path_219" data-name="Path 219" d="M216,124.46c2.17-4.6,1.91-12.65,1.91-12.65h2.27s.28,8.92,2,12.67" fill="#ff7b7b"/>
      <path id="Path_220" data-name="Path 220" d="M220.18,112.52h0a5.46,5.46,0,0,1-2.26-.35s0-.36,0-.36h2.27S220.17,112.21,220.18,112.52Z" fill="#e26d6d"/>
      <ellipse id="Ellipse_98" data-name="Ellipse 98" cx="2.6" cy="1.3" rx="2.6" ry="1.3" transform="translate(216.44 109.41)" fill="#ff7b7b"/>
      <ellipse id="Ellipse_99" data-name="Ellipse 99" cx="0.5" cy="0.22" rx="0.5" ry="0.22" transform="translate(217.133 109.989) rotate(-13.18)" fill="#f4f6f9"/>
      <path id="Path_221" data-name="Path 221" d="M225.3,125.54c2.77-2.76,4.68-8.64,4.68-8.64l1.64.59s-2.12,6.51-1.88,9.67" fill="#ff7b7b"/>
      <path id="Path_222" data-name="Path 222" d="M231.45,118h0a4.15,4.15,0,0,1-1.54-.84l.09-.26,1.64.59S231.52,117.78,231.45,118Z" fill="#e26d6d"/>
      <ellipse id="Ellipse_100" data-name="Ellipse 100" cx="1" cy="2" rx="1" ry="2" transform="translate(228.871 116.657) rotate(-70.19)" fill="#ff7b7b"/>
      <ellipse id="Ellipse_101" data-name="Ellipse 101" cx="0.17" cy="0.38" rx="0.17" ry="0.38" transform="translate(229.866 115.724) rotate(-83.37)" fill="#f4f6f9"/>
      <path id="Path_223" data-name="Path 223" d="M231.16,128.09c2.87-1.76,5.64-6.31,5.64-6.31l1.26.82s-3.08,5-3.51,7.73" fill="#ff7b7b"/>
      <path id="Path_224" data-name="Path 224" d="M237.82,123h0a3.63,3.63,0,0,1-1.12-1l.12-.2,1.26.82Z" fill="#e26d6d"/>
      <ellipse id="Ellipse_102" data-name="Ellipse 102" cx="0.86" cy="1.72" rx="0.86" ry="1.72" transform="matrix(0.548, -0.836, 0.836, 0.548, 235.945, 121.371)" fill="#ff7b7b"/>
      <ellipse id="Ellipse_103" data-name="Ellipse 103" cx="0.15" cy="0.33" rx="0.15" ry="0.33" transform="translate(236.952 120.791) rotate(-69.93)" fill="#f4f6f9"/>
      <path id="Path_225" data-name="Path 225" d="M208.07,127.44c.38-3.34-1.48-8.33-1.48-8.33l1.42-.48s2.06,5.53,3.92,7.52" fill="#ff7b7b"/>
      <path id="Path_226" data-name="Path 226" d="M208.18,119.07h0a3.55,3.55,0,0,1-1.49.26l-.08-.22,1.42-.48Z" fill="#e26d6d"/>
      <ellipse id="Ellipse_104" data-name="Ellipse 104" cx="1.72" cy="0.86" rx="1.72" ry="0.86" transform="translate(205.178 117.908) rotate(-18.66)" fill="#ff7b7b"/>
      <ellipse id="Ellipse_105" data-name="Ellipse 105" cx="0.33" cy="0.15" rx="0.33" ry="0.15" transform="matrix(0.85, -0.528, 0.528, 0.85, 205.731, 118.115)" fill="#f4f6f9"/>
      <path id="Path_227" data-name="Path 227" d="M244.74,145.91c3.19,1.09,8.46.32,8.46.32l.17,1.49s-5.84.85-8.18,2.24" fill="#ff7b7b"/>
      <path id="Path_228" data-name="Path 228" d="M252.91,147.79h0a3.519,3.519,0,0,1,.07-1.51h.23l.17,1.49Z" fill="#e26d6d"/>
      <ellipse id="Ellipse_106" data-name="Ellipse 106" cx="0.86" cy="1.72" rx="0.86" ry="1.72" transform="matrix(0.994, -0.113, 0.113, 0.994, 252.958, 145.316)" fill="#ff7b7b"/>
      <ellipse id="Ellipse_107" data-name="Ellipse 107" cx="0.15" cy="0.33" rx="0.15" ry="0.33" transform="translate(254.059 145.702) rotate(-19.67)" fill="#f4f6f9"/>
      <path id="Path_229" data-name="Path 229" d="M245.34,151.55c2.88,1.74,8.2,2.11,8.2,2.11l-.16,1.49s-5.88-.42-8.47.44" fill="#ff7b7b"/>
      <path id="Path_230" data-name="Path 230" d="M252.91,155.12h0a3.51,3.51,0,0,1,.38-1.46h.24l-.16,1.49Z" fill="#e26d6d"/>
      <ellipse id="Ellipse_108" data-name="Ellipse 108" cx="1.72" cy="0.86" rx="1.72" ry="0.86" transform="matrix(0.102, -0.995, 0.995, 0.102, 253.151, 156.122)" fill="#ff7b7b"/>
      <ellipse id="Ellipse_109" data-name="Ellipse 109" cx="0.15" cy="0.33" rx="0.15" ry="0.33" transform="translate(254.489 153.308) rotate(-7.35)" fill="#f4f6f9"/>
      <path id="Path_231" data-name="Path 231" d="M243,162.42c1.91,2.77,6.59,5.3,6.59,5.3l-.75,1.3s-5.19-2.81-7.9-3.09" fill="#ff7b7b"/>
      <path id="Path_232" data-name="Path 232" d="M248.39,168.8h0a3.37,3.37,0,0,1,1-1.17l.2.11-.75,1.3Z" fill="#e26d6d"/>
      <ellipse id="Ellipse_110" data-name="Ellipse 110" cx="1.72" cy="0.86" rx="1.72" ry="0.86" transform="matrix(0.503, -0.865, 0.865, 0.503, 248.2, 169.793)" fill="#ff7b7b"/>
      <ellipse id="Ellipse_111" data-name="Ellipse 111" cx="0.33" cy="0.15" rx="0.33" ry="0.15" transform="translate(250.359 168.428) rotate(-73.01)" fill="#f4f6f9"/>
      <path id="Path_233" data-name="Path 233" d="M242.89,139.64c3.89.34,9.62-2,9.62-2l.61,1.63s-6.35,2.57-8.61,4.79" fill="#ff7b7b"/>
      <path id="Path_234" data-name="Path 234" d="M252.61,139.5h0a4.17,4.17,0,0,1-.34-1.73l.25-.09.61,1.63Z" fill="#e26d6d"/>
      <ellipse id="Ellipse_112" data-name="Ellipse 112" cx="1" cy="2" rx="1" ry="2" transform="translate(251.99 136.657) rotate(-20.27)" fill="#ff7b7b"/>
      <ellipse id="Ellipse_113" data-name="Ellipse 113" cx="0.17" cy="0.38" rx="0.17" ry="0.38" transform="matrix(0.834, -0.551, 0.551, 0.834, 253.343, 136.811)" fill="#f4f6f9"/>
      <path id="Path_235" data-name="Path 235" d="M245,157.33c2.81,2.72,8.73,4.51,8.73,4.51l-.56,1.65s-6.55-2-9.7-1.69" fill="#ff7b7b"/>
      <path id="Path_236" data-name="Path 236" d="M252.66,163.34h0a4,4,0,0,1,.81-1.55l.26.08-.56,1.65Z" fill="#e26d6d"/>
      <ellipse id="Ellipse_114" data-name="Ellipse 114" cx="2" cy="1" rx="2" ry="1" transform="translate(252.677 164.533) rotate(-71.3)" fill="#ff7b7b"/>
      <ellipse id="Ellipse_115" data-name="Ellipse 115" cx="0.38" cy="0.17" rx="0.38" ry="0.17" transform="translate(254.834 162.469) rotate(-84.48)" fill="#f4f6f9"/>
      <path id="Path_237" data-name="Path 237" d="M234.69,173.06c.33,3.9,3.59,9.15,3.59,9.15l-1.5.87s-3.62-5.82-6.19-7.66" fill="#ff7b7b"/>
      <path id="Path_238" data-name="Path 238" d="M236.48,182.62h0a4.11,4.11,0,0,1,1.63-.64l.14.24-1.5.87Z" fill="#e26d6d"/>
      <ellipse id="Ellipse_116" data-name="Ellipse 116" cx="2" cy="1" rx="2" ry="1" transform="matrix(0.865, -0.501, 0.501, 0.865, 235.707, 183.524)" fill="#ff7b7b"/>
      <ellipse id="Ellipse_117" data-name="Ellipse 117" cx="0.38" cy="0.17" rx="0.38" ry="0.17" transform="translate(238.688 183.395) rotate(-43.24)" fill="#f4f6f9"/>
      <path id="Path_239" data-name="Path 239" d="M237.2,131.33c4.88-1.42,10.74-7,10.74-7l1.5,1.7S243,132.2,241.26,136" fill="#ff7b7b"/>
      <path id="Path_240" data-name="Path 240" d="M248.93,126.57h0a5.39,5.39,0,0,1-1.24-1.92l.27-.24,1.5,1.7Z" fill="#e26d6d"/>
      <ellipse id="Ellipse_118" data-name="Ellipse 118" cx="1.3" cy="2.6" rx="1.3" ry="2.6" transform="matrix(0.748, -0.663, 0.663, 0.748, 246.828, 123.425)" fill="#ff7b7b"/>
      <ellipse id="Ellipse_119" data-name="Ellipse 119" cx="0.22" cy="0.5" rx="0.22" ry="0.5" transform="matrix(0.578, -0.816, 0.816, 0.578, 248.539, 122.96)" fill="#f4f6f9"/>
      <path id="Path_241" data-name="Path 241" d="M241.68,166.39c2.17,4.61,8.54,9.53,8.54,9.53l-1.44,1.75s-7.06-5.46-11-6.55" fill="#ff7b7b"/>
      <path id="Path_242" data-name="Path 242" d="M248.21,177.24h0a5.33,5.33,0,0,1,1.71-1.51l.28.22-1.44,1.75Z" fill="#e26d6d"/>
      <ellipse id="Ellipse_120" data-name="Ellipse 120" cx="2.6" cy="1.3" rx="2.6" ry="1.3" transform="translate(247.667 178.681) rotate(-50.46)" fill="#ff7b7b"/>
      <ellipse id="Ellipse_121" data-name="Ellipse 121" cx="0.5" cy="0.22" rx="0.5" ry="0.22" transform="translate(251.272 177.22) rotate(-63.63)" fill="#f4f6f9"/>
      <path id="Path_243" data-name="Path 243" d="M214.3,178.27c-3.37,3.82-5.36,11.62-5.36,11.62l-2.18-.63s2.22-8.64,1.63-12.72" fill="#e26d6d"/>
      <path id="Path_244" data-name="Path 244" d="M206.93,188.57h0a5.46,5.46,0,0,1,2.07,1l-.1.35-2.18-.63S206.86,188.87,206.93,188.57Z" fill="#d16969"/>
      <ellipse id="Ellipse_122" data-name="Ellipse 122" cx="1.3" cy="2.6" rx="1.3" ry="2.6" transform="matrix(0.278, -0.961, 0.961, 0.278, 204.657, 191.145)" fill="#e26d6d"/>
      <ellipse id="Ellipse_123" data-name="Ellipse 123" cx="0.22" cy="0.5" rx="0.22" ry="0.5" transform="translate(208.15 191.775) rotate(-87.04)" fill="#f4f6f9"/>
      <path id="Path_245" data-name="Path 245" d="M195.43,165.12c-5.09-.13-12.35,3.35-12.35,3.35l-.91-2.07s8-3.86,10.79-6.92" fill="#e26d6d"/>
      <path id="Path_246" data-name="Path 246" d="M182.8,166.08h0a5.51,5.51,0,0,1,.58,2.21l-.32.15-.91-2.07Z" fill="#d16969"/>
      <ellipse id="Ellipse_124" data-name="Ellipse 124" cx="1.292" cy="2.584" rx="1.292" ry="2.584" transform="translate(177.877 165.847) rotate(-23.728)" fill="#e26d6d"/>
      <ellipse id="Ellipse_125" data-name="Ellipse 125" cx="0.22" cy="0.5" rx="0.22" ry="0.5" transform="matrix(0.799, -0.602, 0.602, 0.799, 181.121, 169.106)" fill="#f4f6f9"/>
      <path id="Path_247" data-name="Path 247" d="M194.57,139.44C191.87,135.13,185,131,185,131l1.22-1.91s7.66,4.56,11.73,5.16" fill="#e26d6d"/>
      <path id="Path_248" data-name="Path 248" d="M186.78,129.46h0a5.25,5.25,0,0,1-1.51,1.71L185,131l1.22-1.91Z" fill="#d16969"/>
      <ellipse id="Ellipse_126" data-name="Ellipse 126" cx="2.6" cy="1.3" rx="2.6" ry="1.3" transform="translate(182.149 130.932) rotate(-57.42)" fill="#e26d6d"/>
      <ellipse id="Ellipse_127" data-name="Ellipse 127" cx="0.5" cy="0.22" rx="0.5" ry="0.22" transform="translate(183.005 130.662) rotate(-70.6)" fill="#f4f6f9"/>
      <path id="Path_249" data-name="Path 249" d="M201,132.13c-.88-3.83-4.89-8.58-4.89-8.58l1.38-1.09s4.43,5.27,7.25,6.73" fill="#e26d6d"/>
      <path id="Path_250" data-name="Path 250" d="M197.8,122.88h0a4.16,4.16,0,0,1-1.53.87l-.18-.21,1.38-1.09Z" fill="#d16969"/>
      <ellipse id="Ellipse_128" data-name="Ellipse 128" cx="2.01" cy="1" rx="2.01" ry="1" transform="translate(194.047 122.783) rotate(-38.3)" fill="#e26d6d"/>
      <ellipse id="Ellipse_129" data-name="Ellipse 129" cx="0.38" cy="0.17" rx="0.38" ry="0.17" transform="translate(194.754 122.794) rotate(-51.48)" fill="#f4f6f9"/>
      <path id="Path_251" data-name="Path 251" d="M193,156.51c-3.72-1.27-9.87-.38-9.87-.38l-.19-1.74s6.81-1,9.55-2.6" fill="#e26d6d"/>
      <path id="Path_252" data-name="Path 252" d="M183.49,154.3h0a4.19,4.19,0,0,1-.08,1.76h-.27l-.19-1.74Z" fill="#d16969"/>
      <ellipse id="Ellipse_130" data-name="Ellipse 130" cx="1" cy="2.01" rx="1" ry="2.01" transform="matrix(0.994, -0.111, 0.111, 0.994, 180.985, 153.427)" fill="#e26d6d"/>
      <ellipse id="Ellipse_131" data-name="Ellipse 131" cx="0.17" cy="0.38" rx="0.17" ry="0.38" transform="translate(181.546 156.151) rotate(-19.55)" fill="#f4f6f9"/>
      <path id="Path_253" data-name="Path 253" d="M206.5,174.79c-3.34,2.08-6.52,7.42-6.52,7.42l-1.48-1s3.54-5.91,4-9" fill="#e26d6d"/>
      <path id="Path_254" data-name="Path 254" d="M198.78,180.79h0a4.27,4.27,0,0,1,1.32,1.17l-.14.24-1.48-1Z" fill="#d16969"/>
      <ellipse id="Ellipse_132" data-name="Ellipse 132" cx="1" cy="2.01" rx="1" ry="2.01" transform="matrix(0.54, -0.841, 0.841, 0.54, 196.535, 182.213)" fill="#e26d6d"/>
      <ellipse id="Ellipse_133" data-name="Ellipse 133" cx="0.17" cy="0.38" rx="0.17" ry="0.38" transform="translate(198.993 183.449) rotate(-70.47)" fill="#f4f6f9"/>
      <path id="Path_255" data-name="Path 255" d="M225.72,176.77c-.71,3.08.51,7.93.51,7.93l-1.38.3s-1.35-5.38-2.87-7.43" fill="#e26d6d"/>
      <path id="Path_256" data-name="Path 256" d="M224.74,184.57h0a3.2,3.2,0,0,1,1.42-.08v.21l-1.38.3Z" fill="#d16969"/>
      <ellipse id="Ellipse_134" data-name="Ellipse 134" cx="1.62" cy="0.81" rx="1.62" ry="0.81" transform="translate(223.904 185.105) rotate(-12.29)" fill="#e26d6d"/>
      <ellipse id="Ellipse_135" data-name="Ellipse 135" cx="0.31" cy="0.14" rx="0.31" ry="0.14" transform="translate(226.231 185.729) rotate(-25.47)" fill="#f4f6f9"/>
      <path id="Path_257" data-name="Path 257" d="M221.43,177.79c-1.63,3.57-1.34,9.78-1.34,9.78h-1.75s-.31-6.88-1.66-9.76" fill="#e26d6d"/>
      <path id="Path_258" data-name="Path 258" d="M218.31,187.05h0a4.16,4.16,0,0,1,1.74.25,2.444,2.444,0,0,1,0,.27H218.3A3.232,3.232,0,0,0,218.31,187.05Z" fill="#d16969"/>
      <ellipse id="Ellipse_136" data-name="Ellipse 136" cx="2.01" cy="1" rx="2.01" ry="1" transform="translate(217.199 187.46) rotate(-0.81)" fill="#e26d6d"/>
      <ellipse id="Ellipse_137" data-name="Ellipse 137" cx="0.38" cy="0.17" rx="0.38" ry="0.17" transform="matrix(0.97, -0.242, 0.242, 0.97, 219.871, 188.794)" fill="#f4f6f9"/>
      <path id="Path_259" data-name="Path 259" d="M192.35,146.16c-2.53-1.87-7.43-2.68-7.43-2.68l.27-1.38s5.44.91,7.91.34" fill="#e26d6d"/>
      <path id="Path_260" data-name="Path 260" d="M185.63,142.17h0a3.36,3.36,0,0,1-.48,1.33h-.22l.27-1.38Z" fill="#d16969"/>
      <ellipse id="Ellipse_138" data-name="Ellipse 138" cx="1.6" cy="0.8" rx="1.6" ry="0.8" transform="translate(183.288 144.054) rotate(-78.73)" fill="#e26d6d"/>
      <ellipse id="Ellipse_139" data-name="Ellipse 139" cx="0.14" cy="0.31" rx="0.14" ry="0.31" transform="translate(183.716 143.086) rotate(-1.91)" fill="#f4f6f9"/>
      <path id="Path_261" data-name="Path 261" d="M201.25,170.61c-3.22,1-7,4.8-7,4.8l-1-1.1s4.2-4.17,5.25-6.7" fill="#e26d6d"/>
      <path id="Path_262" data-name="Path 262" d="M193.55,174h0a3.78,3.78,0,0,1,.85,1.26l-.17.16-1-1.1Z" fill="#d16969"/>
      <ellipse id="Ellipse_140" data-name="Ellipse 140" cx="0.86" cy="1.72" rx="0.86" ry="1.72" transform="matrix(0.73, -0.683, 0.683, 0.73, 191.39, 174.688)" fill="#e26d6d"/>
      <ellipse id="Ellipse_141" data-name="Ellipse 141" cx="0.15" cy="0.33" rx="0.15" ry="0.33" transform="matrix(0.555, -0.832, 0.832, 0.555, 193.153, 176.229)" fill="#f4f6f9"/>
      <circle id="Ellipse_142" data-name="Ellipse 142" cx="27.18" cy="27.18" r="27.18" transform="translate(241.15 238.16)" fill="#ff7b7b"/>
      <path id="Path_263" data-name="Path 263" d="M278.87,290.33a27.19,27.19,0,0,1-23.1-49.2,29.27,29.27,0,0,0,21.39,49.25C277.73,290.38,278.3,290.36,278.87,290.33Z" fill="#e26d6d"/>
      <circle id="Ellipse_143" data-name="Ellipse 143" cx="2.57" cy="2.57" r="2.57" transform="translate(273.34 246.01)" fill="#e26d6d"/>
      <circle id="Ellipse_144" data-name="Ellipse 144" cx="2.57" cy="2.57" r="2.57" transform="translate(250.06 247.63)" fill="#f4f6f9"/>
      <circle id="Ellipse_145" data-name="Ellipse 145" cx="1.93" cy="1.93" r="1.93" transform="translate(259.9 246.65)" fill="#f4f6f9"/>
      <circle id="Ellipse_146" data-name="Ellipse 146" cx="4.31" cy="4.31" r="4.31" transform="translate(261.04 258.13)" fill="#e26d6d"/>
      <circle id="Ellipse_147" data-name="Ellipse 147" cx="4.31" cy="4.31" r="4.31" transform="translate(246.57 266.7)" fill="#f4f6f9"/>
      <circle id="Ellipse_148" data-name="Ellipse 148" cx="4.31" cy="4.31" r="4.31" transform="translate(266.55 273.47)" fill="#e26d6d"/>
      <circle id="Ellipse_149" data-name="Ellipse 149" cx="2.57" cy="2.57" r="2.57" transform="translate(282.02 272.64)" fill="#d16969"/>
      <circle id="Ellipse_150" data-name="Ellipse 150" cx="1.93" cy="1.93" r="1.93" transform="translate(255.85 281.45)" fill="#d16969"/>
      <circle id="Ellipse_151" data-name="Ellipse 151" cx="1.93" cy="1.93" r="1.93" transform="translate(249.72 259.63)" fill="#d16969"/>
      <circle id="Ellipse_152" data-name="Ellipse 152" cx="2.57" cy="2.57" r="2.57" transform="translate(279.45 257.1)" fill="#d16969"/>
      <path id="Path_264" data-name="Path 264" d="M265.35,238.32c2.17-4.6,1.91-12.65,1.91-12.65h2.27s.28,8.91,2,12.67" fill="#ff7b7b"/>
      <path id="Path_265" data-name="Path 265" d="M269.56,226.38h0a5.29,5.29,0,0,1-2.26-.36v-.35h2.27S269.55,226.07,269.56,226.38Z" fill="#e26d6d"/>
      <ellipse id="Ellipse_153" data-name="Ellipse 153" cx="2.6" cy="1.3" rx="2.6" ry="1.3" transform="translate(265.83 223.27)" fill="#ff7b7b"/>
      <ellipse id="Ellipse_154" data-name="Ellipse 154" cx="0.5" cy="0.22" rx="0.5" ry="0.22" transform="translate(266.524 223.851) rotate(-13.18)" fill="#f4f6f9"/>
      <path id="Path_266" data-name="Path 266" d="M274.69,239.4c2.76-2.76,4.67-8.65,4.67-8.65l1.64.6s-2.12,6.51-1.87,9.66" fill="#ff7b7b"/>
      <path id="Path_267" data-name="Path 267" d="M280.84,231.87h0a4.16,4.16,0,0,1-1.54-.85l.09-.26,1.64.6Z" fill="#e26d6d"/>
      <ellipse id="Ellipse_155" data-name="Ellipse 155" cx="1" cy="2" rx="1" ry="2" transform="translate(278.261 230.508) rotate(-70.19)" fill="#ff7b7b"/>
      <ellipse id="Ellipse_156" data-name="Ellipse 156" cx="0.17" cy="0.38" rx="0.17" ry="0.38" transform="translate(279.236 229.569) rotate(-83.37)" fill="#f4f6f9"/>
      <path id="Path_268" data-name="Path 268" d="M280.54,241.94c2.87-1.76,5.65-6.3,5.65-6.3l1.25.82s-3.08,5-3.5,7.73" fill="#ff7b7b"/>
      <path id="Path_269" data-name="Path 269" d="M287.2,236.87h0a3.49,3.49,0,0,1-1.12-1l.13-.2,1.25.82Z" fill="#e26d6d"/>
      <ellipse id="Ellipse_157" data-name="Ellipse 157" cx="0.86" cy="1.72" rx="0.86" ry="1.72" transform="matrix(0.548, -0.836, 0.836, 0.548, 285.33, 235.243)" fill="#ff7b7b"/>
      <ellipse id="Ellipse_158" data-name="Ellipse 158" cx="0.15" cy="0.33" rx="0.15" ry="0.33" transform="translate(286.334 234.649) rotate(-69.93)" fill="#f4f6f9"/>
      <path id="Path_270" data-name="Path 270" d="M257.45,241.3c.39-3.3-1.45-8.3-1.45-8.3l1.42-.48s2.06,5.53,3.92,7.53" fill="#ff7b7b"/>
      <path id="Path_271" data-name="Path 271" d="M257.56,232.92h0a3.53,3.53,0,0,1-1.49.25L256,233l1.42-.48Z" fill="#e26d6d"/>
      <ellipse id="Ellipse_159" data-name="Ellipse 159" cx="1.72" cy="0.86" rx="1.72" ry="0.86" transform="translate(254.571 231.76) rotate(-18.66)" fill="#ff7b7b"/>
      <ellipse id="Ellipse_160" data-name="Ellipse 160" cx="0.33" cy="0.15" rx="0.33" ry="0.15" transform="matrix(0.85, -0.528, 0.528, 0.85, 255.121, 231.957)" fill="#f4f6f9"/>
      <path id="Path_272" data-name="Path 272" d="M294.13,259.77c3.19,1.08,8.46.31,8.46.31l.17,1.49s-5.84.85-8.19,2.25" fill="#ff7b7b"/>
      <path id="Path_273" data-name="Path 273" d="M302.29,261.65h0a3.7,3.7,0,0,1,.06-1.51h.24l.17,1.49Z" fill="#e26d6d"/>
      <ellipse id="Ellipse_161" data-name="Ellipse 161" cx="0.86" cy="1.72" rx="0.86" ry="1.72" transform="matrix(0.994, -0.113, 0.113, 0.994, 302.34, 259.163)" fill="#ff7b7b"/>
      <ellipse id="Ellipse_162" data-name="Ellipse 162" cx="0.15" cy="0.33" rx="0.15" ry="0.33" transform="translate(303.442 259.564) rotate(-19.67)" fill="#f4f6f9"/>
      <path id="Path_274" data-name="Path 274" d="M294.72,265.4c2.88,1.74,8.2,2.11,8.2,2.11l-.15,1.5s-5.89-.42-8.47.44" fill="#ff7b7b"/>
      <path id="Path_275" data-name="Path 275" d="M302.3,269h0a3.6,3.6,0,0,1,.38-1.47h.24l-.15,1.5Z" fill="#e26d6d"/>
      <ellipse id="Ellipse_163" data-name="Ellipse 163" cx="1.72" cy="0.86" rx="1.72" ry="0.86" transform="matrix(0.102, -0.995, 0.995, 0.102, 302.529, 269.972)" fill="#ff7b7b"/>
      <ellipse id="Ellipse_164" data-name="Ellipse 164" cx="0.15" cy="0.33" rx="0.15" ry="0.33" transform="translate(303.88 267.165) rotate(-7.35)" fill="#f4f6f9"/>
      <path id="Path_276" data-name="Path 276" d="M292.35,276.28c1.91,2.77,6.6,5.3,6.6,5.3l-.76,1.29s-5.19-2.8-7.9-3.08" fill="#ff7b7b"/>
      <path id="Path_277" data-name="Path 277" d="M297.78,282.66h0a3.66,3.66,0,0,1,.95-1.18l.21.12-.76,1.29Z" fill="#e26d6d"/>
      <ellipse id="Ellipse_165" data-name="Ellipse 165" cx="1.72" cy="0.86" rx="1.72" ry="0.86" transform="matrix(0.503, -0.865, 0.865, 0.503, 297.584, 283.644)" fill="#ff7b7b"/>
      <ellipse id="Ellipse_166" data-name="Ellipse 166" cx="0.33" cy="0.15" rx="0.33" ry="0.15" transform="translate(299.742 282.263) rotate(-73.01)" fill="#f4f6f9"/>
      <path id="Path_278" data-name="Path 278" d="M292.27,253.5c3.9.34,9.63-2,9.63-2l.6,1.64s-6.35,2.57-8.6,4.79" fill="#ff7b7b"/>
      <path id="Path_279" data-name="Path 279" d="M302,253.36h0a4.16,4.16,0,0,1-.35-1.72l.26-.1.6,1.64Z" fill="#e26d6d"/>
      <ellipse id="Ellipse_167" data-name="Ellipse 167" cx="1" cy="2" rx="1" ry="2" transform="translate(301.374 250.51) rotate(-20.27)" fill="#ff7b7b"/>
      <ellipse id="Ellipse_168" data-name="Ellipse 168" cx="0.17" cy="0.38" rx="0.17" ry="0.38" transform="matrix(0.834, -0.551, 0.551, 0.834, 302.72, 250.655)" fill="#f4f6f9"/>
      <path id="Path_280" data-name="Path 280" d="M294.4,271.19c2.81,2.71,8.72,4.51,8.72,4.51l-.55,1.65s-6.56-2-9.71-1.69" fill="#ff7b7b"/>
      <path id="Path_281" data-name="Path 281" d="M302,277.19h0a4.229,4.229,0,0,1,.81-1.56l.26.09-.55,1.65Z" fill="#e26d6d"/>
      <ellipse id="Ellipse_169" data-name="Ellipse 169" cx="2.005" cy="1.002" rx="2.005" ry="1.002" transform="matrix(0.319, -0.948, 0.948, 0.319, 302.644, 277.391)" fill="#ff7b7b"/>
      <ellipse id="Ellipse_170" data-name="Ellipse 170" cx="0.382" cy="0.171" rx="0.382" ry="0.171" transform="translate(306.654 275.969) rotate(-84.289)" fill="#f4f6f9"/>
      <path id="Path_282" data-name="Path 282" d="M284.07,286.92c.33,3.9,3.6,9.14,3.6,9.14l-1.51.88s-3.62-5.82-6.18-7.67" fill="#ff7b7b"/>
      <path id="Path_283" data-name="Path 283" d="M285.87,296.48h0a4.121,4.121,0,0,1,1.64-.63l.14.23-1.51.88Z" fill="#e26d6d"/>
      <ellipse id="Ellipse_171" data-name="Ellipse 171" cx="2" cy="1" rx="2" ry="1" transform="matrix(0.865, -0.501, 0.501, 0.865, 285.084, 297.376)" fill="#ff7b7b"/>
      <ellipse id="Ellipse_172" data-name="Ellipse 172" cx="0.38" cy="0.17" rx="0.38" ry="0.17" transform="translate(288.079 297.246) rotate(-43.24)" fill="#f4f6f9"/>
      <path id="Path_284" data-name="Path 284" d="M286.58,245.19c4.89-1.42,10.74-6.95,10.74-6.95l1.5,1.69s-6.49,6.12-8.17,9.88" fill="#ff7b7b"/>
      <path id="Path_285" data-name="Path 285" d="M298.31,240.43h0a5.38,5.38,0,0,1-1.23-1.92l.26-.24,1.5,1.69Z" fill="#e26d6d"/>
      <ellipse id="Ellipse_173" data-name="Ellipse 173" cx="1.3" cy="2.6" rx="1.3" ry="2.6" transform="matrix(0.748, -0.663, 0.663, 0.748, 296.214, 237.268)" fill="#ff7b7b"/>
      <ellipse id="Ellipse_174" data-name="Ellipse 174" cx="0.22" cy="0.5" rx="0.22" ry="0.5" transform="matrix(0.578, -0.816, 0.816, 0.578, 297.91, 236.805)" fill="#f4f6f9"/>
      <path id="Path_286" data-name="Path 286" d="M291.07,280.25c2.16,4.6,8.53,9.53,8.53,9.53l-1.44,1.74s-7.05-5.46-11-6.54" fill="#ff7b7b"/>
      <path id="Path_287" data-name="Path 287" d="M297.59,291.1h0a5.5,5.5,0,0,1,1.71-1.52l.28.23-1.44,1.74Z" fill="#e26d6d"/>
      <ellipse id="Ellipse_175" data-name="Ellipse 175" cx="2.6" cy="1.3" rx="2.6" ry="1.3" transform="translate(297.052 292.519) rotate(-50.46)" fill="#ff7b7b"/>
      <ellipse id="Ellipse_176" data-name="Ellipse 176" cx="0.5" cy="0.22" rx="0.5" ry="0.22" transform="translate(300.642 291.079) rotate(-63.63)" fill="#f4f6f9"/>
      <path id="Path_288" data-name="Path 288" d="M263.68,292.13c-3.37,3.81-5.35,11.61-5.35,11.61l-2.18-.63s2.21-8.64,1.63-12.71" fill="#e26d6d"/>
      <path id="Path_289" data-name="Path 289" d="M256.32,302.42h0a5.46,5.46,0,0,1,2.07,1l-.09.34-2.18-.63S256.24,302.73,256.32,302.42Z" fill="#d16969"/>
      <ellipse id="Ellipse_177" data-name="Ellipse 177" cx="1.3" cy="2.6" rx="1.3" ry="2.6" transform="matrix(0.278, -0.961, 0.961, 0.278, 254.037, 305.003)" fill="#e26d6d"/>
      <ellipse id="Ellipse_178" data-name="Ellipse 178" cx="0.22" cy="0.5" rx="0.22" ry="0.5" transform="translate(257.529 305.631) rotate(-87.04)" fill="#f4f6f9"/>
      <path id="Path_290" data-name="Path 290" d="M244.81,279c-5.09-.14-12.34,3.35-12.34,3.35l-.92-2.08s8-3.85,10.8-6.91" fill="#e26d6d"/>
      <path id="Path_291" data-name="Path 291" d="M232.19,279.94h0a5.34,5.34,0,0,1,.59,2.21l-.32.15-.92-2.08Z" fill="#d16969"/>
      <ellipse id="Ellipse_179" data-name="Ellipse 179" cx="1.3" cy="2.6" rx="1.3" ry="2.6" transform="translate(228.758 279.829) rotate(-23.81)" fill="#e26d6d"/>
      <ellipse id="Ellipse_180" data-name="Ellipse 180" cx="0.22" cy="0.5" rx="0.22" ry="0.5" transform="matrix(0.799, -0.602, 0.602, 0.799, 230.494, 282.971)" fill="#f4f6f9"/>
      <path id="Path_292" data-name="Path 292" d="M244,253.3c-2.71-4.31-9.63-8.42-9.63-8.42l1.22-1.92s7.66,4.57,11.74,5.17" fill="#e26d6d"/>
      <path id="Path_293" data-name="Path 293" d="M236.17,243.32h0a5.39,5.39,0,0,1-1.52,1.71l-.3-.18,1.22-1.92A5.672,5.672,0,0,0,236.17,243.32Z" fill="#d16969"/>
      <ellipse id="Ellipse_181" data-name="Ellipse 181" cx="2.596" cy="1.298" rx="2.596" ry="1.298" transform="matrix(0.541, -0.841, 0.841, 0.541, 231.237, 245.767)" fill="#e26d6d"/>
      <ellipse id="Ellipse_182" data-name="Ellipse 182" cx="0.5" cy="0.22" rx="0.5" ry="0.22" transform="translate(232.382 244.505) rotate(-70.6)" fill="#f4f6f9"/>
      <path id="Path_294" data-name="Path 294" d="M250.35,246c-.89-3.83-4.89-8.58-4.89-8.58l1.37-1.08s4.43,5.27,7.25,6.73" fill="#e26d6d"/>
      <path id="Path_295" data-name="Path 295" d="M247.19,236.73h0a4.19,4.19,0,0,1-1.54.87l-.17-.22,1.37-1.08Z" fill="#d16969"/>
      <ellipse id="Ellipse_183" data-name="Ellipse 183" cx="2.01" cy="1" rx="2.01" ry="1" transform="translate(243.438 236.654) rotate(-38.3)" fill="#e26d6d"/>
      <ellipse id="Ellipse_184" data-name="Ellipse 184" cx="0.38" cy="0.17" rx="0.38" ry="0.17" transform="translate(244.14 236.66) rotate(-51.48)" fill="#f4f6f9"/>
      <path id="Path_296" data-name="Path 296" d="M242.39,270.37c-3.72-1.28-9.87-.39-9.87-.39l-.19-1.74s6.81-1,9.55-2.59" fill="#e26d6d"/>
      <path id="Path_297" data-name="Path 297" d="M232.87,268.16h0a4.24,4.24,0,0,1-.07,1.77h-.28l-.19-1.74Z" fill="#d16969"/>
      <ellipse id="Ellipse_185" data-name="Ellipse 185" cx="1" cy="2.01" rx="1" ry="2.01" transform="matrix(0.994, -0.111, 0.111, 0.994, 230.382, 267.284)" fill="#e26d6d"/>
      <ellipse id="Ellipse_186" data-name="Ellipse 186" cx="0.17" cy="0.38" rx="0.17" ry="0.38" transform="translate(230.929 270.01) rotate(-19.55)" fill="#f4f6f9"/>
      <path id="Path_298" data-name="Path 298" d="M255.88,288.65c-3.33,2.08-6.52,7.41-6.52,7.41l-1.47-.94s3.54-5.91,4-9.05" fill="#e26d6d"/>
      <path id="Path_299" data-name="Path 299" d="M248.16,294.64h0a4.11,4.11,0,0,1,1.31,1.17l-.14.23-1.47-.94Z" fill="#d16969"/>
      <ellipse id="Ellipse_187" data-name="Ellipse 187" cx="1" cy="2.01" rx="1" ry="2.01" transform="matrix(0.54, -0.841, 0.841, 0.54, 245.92, 296.069)" fill="#e26d6d"/>
      <ellipse id="Ellipse_188" data-name="Ellipse 188" cx="0.17" cy="0.38" rx="0.17" ry="0.38" transform="translate(248.371 297.31) rotate(-70.47)" fill="#f4f6f9"/>
      <path id="Path_300" data-name="Path 300" d="M275.1,290.62c-.71,3.09.51,7.94.51,7.94l-1.38.3s-1.34-5.38-2.87-7.43" fill="#e26d6d"/>
      <path id="Path_301" data-name="Path 301" d="M274.12,298.43h0a3.38,3.38,0,0,1,1.42-.09l.05.22-1.38.3Z" fill="#d16969"/>
      <ellipse id="Ellipse_189" data-name="Ellipse 189" cx="1.62" cy="0.81" rx="1.62" ry="0.81" transform="translate(273.277 298.954) rotate(-12.29)" fill="#e26d6d"/>
      <ellipse id="Ellipse_190" data-name="Ellipse 190" cx="0.31" cy="0.14" rx="0.31" ry="0.14" transform="translate(275.625 299.594) rotate(-25.47)" fill="#f4f6f9"/>
      <path id="Path_302" data-name="Path 302" d="M270.82,291.65c-1.63,3.57-1.34,9.78-1.34,9.78h-1.75s-.32-6.87-1.66-9.75" fill="#e26d6d"/>
      <path id="Path_303" data-name="Path 303" d="M267.69,300.91h0a4,4,0,0,1,1.75.25v.27h-1.75A3.973,3.973,0,0,0,267.69,300.91Z" fill="#d16969"/>
      <ellipse id="Ellipse_191" data-name="Ellipse 191" cx="2.01" cy="1" rx="2.01" ry="1" transform="translate(266.584 301.3) rotate(-0.81)" fill="#e26d6d"/>
      <ellipse id="Ellipse_192" data-name="Ellipse 192" cx="0.38" cy="0.17" rx="0.38" ry="0.17" transform="matrix(0.97, -0.242, 0.242, 0.97, 269.272, 302.647)" fill="#f4f6f9"/>
      <path id="Path_304" data-name="Path 304" d="M241.73,260c-2.52-1.87-7.43-2.69-7.43-2.69l.28-1.37s5.43.91,7.91.34" fill="#e26d6d"/>
      <path id="Path_305" data-name="Path 305" d="M235,256h0a3.4,3.4,0,0,1-.49,1.32h-.22l.28-1.37Z" fill="#d16969"/>
      <ellipse id="Ellipse_193" data-name="Ellipse 193" cx="1.6" cy="0.8" rx="1.6" ry="0.8" transform="translate(232.675 257.898) rotate(-78.73)" fill="#e26d6d"/>
      <ellipse id="Ellipse_194" data-name="Ellipse 194" cx="0.14" cy="0.31" rx="0.14" ry="0.31" transform="translate(233.103 256.927) rotate(-1.91)" fill="#f4f6f9"/>
      <path id="Path_306" data-name="Path 306" d="M250.63,284.46c-3.21,1-7,4.81-7,4.81l-1-1.1s4.19-4.18,5.24-6.7" fill="#e26d6d"/>
      <path id="Path_307" data-name="Path 307" d="M242.94,287.83h0a3.34,3.34,0,0,1,.85,1.26l-.17.16-1-1.1Z" fill="#d16969"/>
      <ellipse id="Ellipse_195" data-name="Ellipse 195" cx="0.86" cy="1.72" rx="0.86" ry="1.72" transform="matrix(0.73, -0.683, 0.683, 0.73, 240.765, 288.554)" fill="#e26d6d"/>
      <ellipse id="Ellipse_196" data-name="Ellipse 196" cx="0.15" cy="0.33" rx="0.15" ry="0.33" transform="matrix(0.555, -0.832, 0.832, 0.555, 242.546, 290.096)" fill="#f4f6f9"/>
      <ellipse id="Ellipse_197" data-name="Ellipse 197" cx="51.56" cy="10.17" rx="51.56" ry="10.17" transform="translate(83.56 370.64)" fill="#d6d8e5" opacity="0.4"/>
      <ellipse id="Ellipse_198" data-name="Ellipse 198" cx="27.22" cy="5.87" rx="27.22" ry="5.87" transform="translate(241.08 331.51)" fill="#d6d8e5" opacity="0.4"/>
      <ellipse id="Ellipse_199" data-name="Ellipse 199" cx="27.22" cy="5.87" rx="27.22" ry="5.87" transform="translate(191.99 207.55)" fill="#d6d8e5" opacity="0.4"/>
      <ellipse id="Ellipse_200" data-name="Ellipse 200" cx="33.68" cy="19.45" rx="33.68" ry="19.45" transform="translate(0 173.89)" fill="#d6d8e5" opacity="0.4"/>
      <path id="Path_308" data-name="Path 308" d="M16.38,190c2.48,2,6.15.17,6.33.36A111.667,111.667,0,0,0,31.88,198c1.54,1.22,4,2.85,3.52,5.19-.78,4.18-7.48,2.9-10,1.62s-4.59-3.41-7-4.89c-1.71-1.06-3.39-1.61-3.65-3.77C14.6,194.82,15.94,189.93,16.38,190Z" fill="#22396d"/>
      <path id="Path_309" data-name="Path 309" d="M14.79,195.25c.33,2.07,2,2.64,3.68,3.69,2.43,1.51,4.57,3.69,7.1,5,2.33,1.18,8.16,2.35,9.8-.64-.89,4-7.48,2.77-10,1.51s-4.59-3.41-7-4.89c-1.71-1.06-3.39-1.61-3.65-3.77a3.86,3.86,0,0,1,.07-.9Z" fill="#5084ff"/>
      <path id="Path_310" data-name="Path 310" d="M37.93,182c2.49,2,6.83-.18,7,0a92.53,92.53,0,0,0,8.19,7.4c1.54,1.21,4,2.84,3.52,5.18-.78,4.19-7.48,2.9-10,1.62s-4.59-3.4-7-4.89c-1.71-1.05-3.39-1.6-3.65-3.76C35.86,186.21,37.49,181.91,37.93,182Z" fill="#22396d"/>
      <path id="Path_311" data-name="Path 311" d="M36.09,186.94c.33,2.06,2,2.63,3.68,3.68,2.43,1.51,4.57,3.69,7.1,5,2.33,1.18,8.16,2.36,9.8-.63-.89,4-7.47,2.77-10,1.5s-4.59-3.4-7-4.89c-1.71-1.06-3.39-1.61-3.65-3.76a3.83,3.83,0,0,1,.07-.9Z" fill="#5084ff"/>
      <path id="Path_312" data-name="Path 312" d="M54.53,44.77s-.08,4,.41,14.06a164.138,164.138,0,0,1-1,22.44,60.24,60.24,0,0,1-4.77,17.07c-1.78-8.57.29-10.08.29-10.08l-1-18.21s1-17.58.61-23.83C48.81,42.26,54.53,44.77,54.53,44.77Z" fill="#ffcea9"/>
      <path id="Path_313" data-name="Path 313" d="M16.3,98.26c.12,3.75,1.29,20.06,1.81,28.7s.64,19.22.64,19.22-1.49,6.29-2.45,13.68,0,30.73,0,30.73a5.87,5.87,0,0,0,6.36,0s4-18.68,5.81-27.09,2.16-13.26,3.12-18.48c1.15-6.31,3.64-35.75,3.64-35.75h1l2.66,33.24a37.4,37.4,0,0,0-1.68,7.54c-.72,5.42.77,32.66.77,32.66a6.6,6.6,0,0,0,6.87-.28s6.64-36.08,6.64-41.57c0-3.63-.62-51.51-.62-51.51Z" fill="#5084ff"/>
      <path id="Path_314" data-name="Path 314" d="M25.3,25.66s.42,8.19.24,8.92-3.76,3.12-4.8,4,5.66,7.47,8.92,9S43.25,45.08,43.43,40s-1.77-9.33-3.35-9.56S25.3,25.66,25.3,25.66Z" fill="#ffcea9"/>
      <path id="Path_315" data-name="Path 315" d="M24.39,36s5.94,8.85,14.23,9.69c2.61-2.58,2.85-11.75-.77-14.68,0,0,3.33-2.68,5.6-2.16a12.4,12.4,0,0,1,5.8,6.74c1.53,4.67,2.39,10.06,2.25,18.74s0,35.24,0,35.24-1.17,5.61-8.67,9.79-13.07,4.59-18.15,3.4c-4.2-1-7.67-2.46-9.12-5.5.38-6.09,3.1-22,2.08-29.64S15,54.23,14.6,48s.82-6.06,3.92-8.27A48.5,48.5,0,0,1,24.39,36Z" fill="#f4f4f4"/>
      <path id="Path_316" data-name="Path 316" d="M21.06,101.82c-1.23-1.38-3.36-9-4.58-13.88a48.94,48.94,0,0,1-.7-16.58c1.1-6.6,4.12-15.74,5-19.52s-.27-5.39-2-6.92c-2-1.79-4.91-1.26-6.81,4A103.5,103.5,0,0,0,7,71.39a52,52,0,0,0,1.47,17c1.27,5.13,3.13,8.88,5.51,13.6.65,1.29,2.13,4.88,3.08,7.48S22.19,103.08,21.06,101.82Z" fill="#ffcea9"/>
      <path id="Path_317" data-name="Path 317" d="M7,57.5s5.85,5.81,12.76,4.13c1-.67,3.36-14.25,3.36-14.25s0-7.53-5.77-7.33S7,57.5,7,57.5Z" fill="#ededed"/>
      <path id="Path_318" data-name="Path 318" d="M51.51,49.86s3.78.48,5.05-1.3c-.24-3-5.27-18.86-13.11-19.72a26.68,26.68,0,0,1,4.9,5.9C51.09,39.38,51.51,49.86,51.51,49.86Z" fill="#ededed"/>
      <path id="Path_319" data-name="Path 319" d="M44.51,19.24a22.1,22.1,0,0,1-1.49,9,6.94,6.94,0,0,1-2.66,3.45,6.77,6.77,0,0,1-2.56.83c-2,.28-9-1.39-11.35-4.1a12.92,12.92,0,0,1-1-2.78,12.6,12.6,0,0,1,6.42-23C38.42,2.28,43,7.09,44,13.45A39.2,39.2,0,0,1,44.51,19.24Z" fill="#ffcea9"/>
      <rect id="Rectangle_67" data-name="Rectangle 67" width="0.41" height="7.67" transform="matrix(0.206, -0.979, 0.979, 0.206, 25.646, 20.314)" fill="#fff"/>
      <rect id="Rectangle_68" data-name="Rectangle 68" width="0.41" height="6.49" transform="translate(25.29 24.109) rotate(-68.65)" fill="#fff"/>
      <path id="Path_320" data-name="Path 320" d="M25.44,25.66h0l.6-5.55s-4.53-11.73,6.18-9.48c7.06,1.49,8.84,2.13,11-2.61S37.77-1,28.77.2A12.44,12.44,0,0,0,17.63,12.83C17.86,16.32,18.79,23.38,25.44,25.66Z" fill="#22396d"/>
      <path id="Path_321" data-name="Path 321" d="M44.51,19.24a22.1,22.1,0,0,1-1.49,9,6.94,6.94,0,0,1-2.66,3.45C37.24,31.43,31,26.44,31,26.28a22.84,22.84,0,0,1,1.66-4.92c3.79,0,8-2.84,8.87-2.84a28.3,28.3,0,0,1,2.98.72Z" fill="#f4f4f4"/>
      <ellipse id="Ellipse_201" data-name="Ellipse 201" cx="33.68" cy="19.45" rx="33.68" ry="19.45" transform="translate(356.24 461.1)" fill="#d6d8e5" opacity="0.4"/>
      <path id="_Контур_" data-name=" Контур " d="M417.76,332.43c.39,3.36,4.4,17.88,3.54,22.85s-14.53,13.29-14.53,13.29l-1.85-8.52,7.59-7.39-2.05-14.11Z" fill="#ffcea9"/>
      <path id="_Контур_2" data-name=" Контур 2" d="M407.15,318.13a6,6,0,0,1,7.64,2.3c2,3.35,4.12,14.79,4.3,16.76,0,0-2.83,3.92-7.07,3.26Z" fill="#ededed"/>
      <path id="Path_322" data-name="Path 322" d="M391.5,480a11.8,11.8,0,0,1-8.88-1.07c-2.14.06-13.74-4.9-15.32-.73-1.38,3.7,3.64,7,6.33,7.68,5.86,1.43,10.17,4.35,12.55,4.84,1.76.37,4,.62,5.43-.76C393.28,488.26,393.14,482.14,391.5,480Z" fill="#2d333e"/>
      <path id="Path_323" data-name="Path 323" d="M386.18,489.67c-2.35-.5-6.69-3.42-12.55-4.84-2.25-.54-6.13-3-6.52-5.94-.52,3.36,4,6.35,6.52,6.95,5.86,1.43,10.17,4.35,12.55,4.84,1.76.37,4,.62,5.43-.76a3.53,3.53,0,0,0,.77-1.41,7.06,7.06,0,0,1-6.2,1.16Z" fill="#cfcfcf"/>
      <path id="Path_324" data-name="Path 324" d="M410.32,471.51a11.75,11.75,0,0,1-8.88-1.07c-2.14.06-13.74-4.91-15.31-.74-1.39,3.66,3.64,7,6.32,7.69,5.86,1.42,10.17,4.35,12.55,4.85,1.76.37,4,.61,5.43-.77C412.1,479.81,412,473.69,410.32,471.51Z" fill="#2d333e"/>
      <path id="Path_325" data-name="Path 325" d="M405,481.22c-2.35-.5-6.69-3.42-12.55-4.84-2.25-.54-6.13-3-6.47-5.94-.52,3.36,4,6.35,6.47,6.95,5.86,1.42,10.17,4.35,12.55,4.85,1.76.37,4,.61,5.43-.77a3.67,3.67,0,0,0,.77-1.41,7.06,7.06,0,0,1-6.2,1.16Z" fill="#cfcfcf"/>
      <path id="_Контур_3" data-name=" Контур 3" d="M410.55,440a70.507,70.507,0,0,0-2.68-12.7s.8-11,1.2-21.38c.45-11.8,4.55-22.19,1.31-31.59L374,382.4s2.2,47.05,2.7,52.71a104.58,104.58,0,0,0,1.63,13.2c1.66,9.14,4.36,30.86,4.36,30.86,3.85,2.24,8.9,1,8.9,1s-.27-27.47-.52-34.06c-.3-8-.55-7.39-.55-7.39l1.2-20,.79-9.95s1,7.31,1.66,13.87c.58,5.69,1.95,10.84,3.49,21.43,1.33,9.19,3.49,27.66,3.49,27.66,3.85,2.24,9.08.38,9.08.38S411.58,448,410.55,440Z" fill="#cfcfcf"/>
      <path id="_Контур_4" data-name=" Контур 4" d="M405.23,318.32c-2.77.14-4.84.85-5.19,0a39.462,39.462,0,0,1-.63-4.34c.32-.8.6-1.66.6-1.66,3.48-2.15,4.62-5.91,5-10.29.78-7.5-3.27-14-10.76-14.8-7.05-.73-12.22,4.22-13.6,11-.75,3.36-2.23,9.69-.22,15.22,1.11,3.08,2.56,5.54,4,6a36.28,36.28,0,0,0,4.17-.36h0s.38,2.08.63,3.41.16,2-2.5,3.7,4,5,8.38,4.68,9.25-3,10.63-5.79C407.27,321.94,407.14,318.23,405.23,318.32Z" fill="#ffcea9"/>
      <path id="_Контур_5" data-name=" Контур 5" d="M401.22,318.74c.77,1.91-1.19,4.25-6.39,5.89s-5.68-.47-5.68-.47-7.64,3.48-10.13,5.21c-3.12,2.19-4.5,8.51-4.93,19.19-.49,12.35-.52,30.67-.12,33.84,0,0,5.85,5.82,13.32,5.2s20-7.22,23.12-12.33c-.09-10.83-1.35-12.6.4-18.83,4-14.29,6.13-20.13,4.18-29.59-1.61-7.83-3.87-8.8-7-8.72a62.178,62.178,0,0,0-6.77.61Z" fill="#f4f4f4"/>
      <path id="_Контур_6" data-name=" Контур 6" d="M362.38,360.84c6.14,1.55,7.57-2.32,8.39-5.55,2-7.75,3-14.79,4.45-19.15,1.71-5.2,3.51-6,6-7,3-1.18,5.55,1.32,4.52,7.93-1.16,7.81-2.7,13.31-5.62,22.55-.76,2.42-2.47,6.71-5,8.78-3.16,2.56-7.92,2.45-15.14.66-3.08-.77-6.47-2.6-12.27-5.32-1.56-.73-2.77-1.21-5.77-2.61a20.44,20.44,0,0,1-7.69-6c-1.58-2.28-1.78-3.35-1.46-3.87s1.11-.51,2,.46a16.81,16.81,0,0,0,4.42,4.07s-1.94-2-3-3.3a16.329,16.329,0,0,1-2.32-3.79c-.56-1.32.58-3.12,1.45-2.18s1.29,1.91,2.88,3.81A15.911,15.911,0,0,0,341,353a31.214,31.214,0,0,1-2.62-4.22,7.16,7.16,0,0,1-.93-3.81c0-.69,1-1.52,2-.2s1.36,3,3.3,5c1.39,1.46,2.59,2.29,2.62,1.89s-.85-1.2-1.35-2.89,0-3.49.93-3.7.76-.15,1.51,1.44,1.9,2.78,2.77,5.07a10.389,10.389,0,0,0,2.52,4.34C353.18,357.59,356.51,359.37,362.38,360.84Z" fill="#ffcea9"/>
      <path id="_Контур_7" data-name=" Контур 7" d="M383.49,328.09c-4.1-.62-7,1.23-8.8,7.39s-3.06,11.33-3.06,11.33a11.16,11.16,0,0,0,6.87,4.56c4.9,1.18,6.65-1.15,6.65-1.15s1.36-6.48,2.21-10.94S388.56,328.82,383.49,328.09Z" fill="#ededed"/>
      <path id="Path_326" data-name="Path 326" d="M385.01,309.04l7.01-2.05-.21-.46-7.02,2.05Z" fill="#fff"/>
      <path id="Path_327" data-name="Path 327" d="M385.57,312.36l-.05.5,5.85-.11.05-.5Z" fill="#fff"/>
      <path id="Path_328" data-name="Path 328" d="M384.8,319.53c-1.86,0-3.4-2.95-4.56-6a18,18,0,0,1-1.05-6.71.33.33,0,0,1,.47-.29,11.53,11.53,0,0,0,6.11,1.72l1,4.76S385,319.29,384.8,319.53Z" fill="#ededed"/>
      <path id="Path_329" data-name="Path 329" d="M380.92,297.25s-6.47-9.84,7.55-11.84c10.12-1.45,16.65,5,17.37,12.1.72,6.73-3.43,13.74-6.43,16.51-1.46.53-4.62.82-8.73-1a46.8,46.8,0,0,1-.2-5.55S395.41,297.08,380.92,297.25Z" fill="#191f2e"/>
      <path id="Path_330" data-name="Path 330" d="M414.07,340.86,374,378.22l-2.34,71.84s11.24,5.49,24,2.52L398,425l3.54,25-.42.76a36.14,36.14,0,0,0,15-12.5Z" fill="#f4f4f4"/>
      <path id="Path_331" data-name="Path 331" d="M371.63,346.81l-2,8.67s-1.68,6.07-6,4.53a113.45,113.45,0,0,1-11.87-5.83l-5.18,10.63,10.71,5s14.87,5.3,19,0,8.77-19.61,8.77-19.61Z" fill="#ededed"/>
      <path id="Path_332" data-name="Path 332" d="M383,307.77c1.06.22,2.31.29,3,1.16a3.6,3.6,0,0,1,.24,2.91l-1.28,6.38a2.06,2.06,0,0,1-.72,1.41,1.74,1.74,0,0,1-1.7-.16,8.41,8.41,0,0,1-4-6.13,14.28,14.28,0,0,1,.15-6.44c.39-1.07,1-.66,1.72-.19A7.69,7.69,0,0,0,383,307.77Z" fill="none"/>
    </g>
  </g>
</svg>
