<svg id="Capa_1" enable-background="new 0 0 510 510" height="512" viewBox="0 0 510 510" width="512" xmlns="http://www.w3.org/2000/svg" xmlns:xlink="http://www.w3.org/1999/xlink"><linearGradient id="lg1"><stop offset="0" stop-color="#edf5ff"/><stop offset="1" stop-color="#d5e8fe"/></linearGradient><linearGradient id="SVGID_1_" gradientUnits="userSpaceOnUse" x1="10.358" x2="110.981" xlink:href="#lg1" y1="320.624" y2="320.624"/><linearGradient id="SVGID_2_" gradientUnits="userSpaceOnUse" x1="105.691" x2="29.644" xlink:href="#lg1" y1="213.05" y2="213.05"/><linearGradient id="lg2"><stop offset="0" stop-color="#07485e" stop-opacity="0"/><stop offset=".2708" stop-color="#074459" stop-opacity=".271"/><stop offset=".597" stop-color="#05394a" stop-opacity=".597"/><stop offset=".9505" stop-color="#032632" stop-opacity=".951"/><stop offset="1" stop-color="#03232e"/></linearGradient><linearGradient id="SVGID_3_" gradientUnits="userSpaceOnUse" x1="108.37" x2="-24.63" xlink:href="#lg2" y1="250.559" y2="173.559"/><linearGradient id="lg3"><stop offset="0" stop-color="#9ae1d3"/><stop offset="1" stop-color="#80d1c1"/></linearGradient><linearGradient id="SVGID_4_" gradientUnits="userSpaceOnUse" x1="52.845" x2="75.932" xlink:href="#lg3" y1="194.895" y2="217.982"/><linearGradient id="SVGID_5_" gradientUnits="userSpaceOnUse" x1="105.691" x2="29.644" xlink:href="#lg1" y1="317.396" y2="317.396"/><linearGradient id="SVGID_6_" gradientUnits="userSpaceOnUse" x1="108.37" x2="-24.63" xlink:href="#lg2" y1="354.905" y2="277.905"/><linearGradient id="SVGID_7_" gradientUnits="userSpaceOnUse" x1="52.845" x2="75.932" xlink:href="#lg3" y1="299.241" y2="322.328"/><linearGradient id="SVGID_8_" gradientUnits="userSpaceOnUse" x1="105.691" x2="29.644" xlink:href="#lg1" y1="421.742" y2="421.742"/><linearGradient id="SVGID_9_" gradientUnits="userSpaceOnUse" x1="102.675" x2="-13.737" xlink:href="#lg2" y1="448.678" y2="381.281"/><linearGradient id="SVGID_10_" gradientUnits="userSpaceOnUse" x1="52.845" x2="75.932" xlink:href="#lg3" y1="403.587" y2="426.674"/><linearGradient id="SVGID_11_" gradientUnits="userSpaceOnUse" x1="71" x2="71" xlink:href="#lg2" y1="215.982" y2="100.481"/><linearGradient id="lg4"><stop offset="0" stop-color="#cbd0e4"/><stop offset="1" stop-color="#6a7d83"/></linearGradient><linearGradient id="SVGID_12_" gradientUnits="userSpaceOnUse" x1="71" x2="71" xlink:href="#lg4" y1="134.482" y2="173.995"/><linearGradient id="SVGID_13_" gradientUnits="userSpaceOnUse" x1="378.358" x2="478.981" xlink:href="#lg1" y1="320.624" y2="320.624"/><linearGradient id="SVGID_14_" gradientUnits="userSpaceOnUse" x1="473.691" x2="397.644" xlink:href="#lg1" y1="213.05" y2="213.05"/><linearGradient id="SVGID_15_" gradientUnits="userSpaceOnUse" x1="476.37" x2="343.37" xlink:href="#lg2" y1="250.559" y2="173.559"/><linearGradient id="SVGID_16_" gradientUnits="userSpaceOnUse" x1="420.845" x2="443.932" xlink:href="#lg3" y1="194.895" y2="217.982"/><linearGradient id="SVGID_17_" gradientUnits="userSpaceOnUse" x1="473.691" x2="397.644" xlink:href="#lg1" y1="317.396" y2="317.396"/><linearGradient id="SVGID_18_" gradientUnits="userSpaceOnUse" x1="476.37" x2="343.37" xlink:href="#lg2" y1="354.905" y2="277.905"/><linearGradient id="SVGID_19_" gradientUnits="userSpaceOnUse" x1="420.845" x2="443.932" xlink:href="#lg3" y1="299.241" y2="322.328"/><linearGradient id="SVGID_20_" gradientUnits="userSpaceOnUse" x1="473.691" x2="397.644" xlink:href="#lg1" y1="421.742" y2="421.742"/><linearGradient id="SVGID_21_" gradientUnits="userSpaceOnUse" x1="467.348" x2="357.174" xlink:href="#lg2" y1="446.752" y2="382.967"/><linearGradient id="SVGID_22_" gradientUnits="userSpaceOnUse" x1="420.845" x2="443.932" xlink:href="#lg3" y1="403.587" y2="426.674"/><linearGradient id="SVGID_23_" gradientUnits="userSpaceOnUse" x1="439" x2="439" xlink:href="#lg2" y1="215.982" y2="100.481"/><linearGradient id="SVGID_24_" gradientUnits="userSpaceOnUse" x1="439" x2="439" xlink:href="#lg4" y1="134.482" y2="173.995"/><linearGradient id="SVGID_25_" gradientUnits="userSpaceOnUse" x1="454" x2="326.984" xlink:href="#lg2" y1="320.624" y2="320.624"/><linearGradient id="SVGID_26_" gradientUnits="userSpaceOnUse" x1="192.604" x2="417.703" xlink:href="#lg1" y1="241.605" y2="466.704"/><linearGradient id="SVGID_27_" gradientUnits="userSpaceOnUse" x1="316.345" x2="239.345" xlink:href="#lg2" y1="234.947" y2="-39.053"/><linearGradient id="SVGID_28_" gradientUnits="userSpaceOnUse" x1="335.028" x2="137.341" xlink:href="#lg1" y1="494.454" y2="296.768"/><linearGradient id="SVGID_29_" gradientUnits="userSpaceOnUse" x1="217.757" x2="275.742" xlink:href="#lg3" y1="385.391" y2="443.376"/><linearGradient id="SVGID_30_" gradientUnits="userSpaceOnUse" x1="207.291" x2="317.541" y1="51.237" y2="161.487"><stop offset="0" stop-color="#ff637b"/><stop offset="1" stop-color="#e63950"/></linearGradient><linearGradient id="lg5"><stop offset="0" stop-color="#e63950" stop-opacity="0"/><stop offset=".0467" stop-color="#e4354b" stop-opacity=".047"/><stop offset=".4669" stop-color="#d31822" stop-opacity=".467"/><stop offset=".7991" stop-color="#c90709" stop-opacity=".799"/><stop offset="1" stop-color="#c50000"/></linearGradient><linearGradient id="SVGID_31_" gradientUnits="userSpaceOnUse" x1="266.447" x2="173.014" xlink:href="#lg5" y1="98.921" y2="135.715"/><linearGradient id="SVGID_32_" gradientUnits="userSpaceOnUse" x1="254.784" x2="258.918" xlink:href="#lg5" y1="85.972" y2="132.275"/><linearGradient id="SVGID_33_" gradientUnits="userSpaceOnUse" x1="284.309" x2="166.976" y1="418.963" y2="357.629"><stop offset="0" stop-color="#0b799d" stop-opacity="0"/><stop offset=".1739" stop-color="#117d9e" stop-opacity=".174"/><stop offset=".414" stop-color="#2389a0" stop-opacity=".414"/><stop offset=".6928" stop-color="#409ca3" stop-opacity=".693"/><stop offset=".9986" stop-color="#69b7a8" stop-opacity=".999"/><stop offset="1" stop-color="#69b7a8"/></linearGradient><linearGradient id="SVGID_34_" gradientUnits="userSpaceOnUse" x1="255" x2="255" xlink:href="#lg2" y1="456.482" y2="508.827"/><linearGradient id="SVGID_35_" gradientUnits="userSpaceOnUse" x1="255" x2="255" xlink:href="#lg2" y1="398.482" y2="161.8"/><linearGradient id="SVGID_36_" gradientUnits="userSpaceOnUse" x1="255" x2="255" xlink:href="#lg4" y1="253.841" y2="293.354"/><g><g><path d="m131.927 497.432h-104.082c-9.815 0-17.772-7.957-17.772-17.772v-335.845h121.855v353.617z" fill="url(#SVGID_1_)"/><g><g><path d="m84.333 257.05h-26.666c-7.18 0-13-5.82-13-13v-62c0-7.18 5.82-13 13-13h26.667c7.18 0 13 5.82 13 13v62c-.001 7.18-5.821 13-13.001 13z" fill="url(#SVGID_2_)"/><path d="m131.927 224.658-44.338-44.338c-1.824-2.389-4.694-3.936-7.931-3.936h-17.315c-5.515 0-9.985 4.471-9.985 9.985v53.363c0 3.238 1.548 6.107 3.936 7.931l75.634 75.634v-98.639z" fill="url(#SVGID_3_)"/><path d="m79.657 249.717h-17.314c-5.515 0-9.985-4.47-9.985-9.985v-53.363c0-5.515 4.47-9.985 9.985-9.985h17.315c5.515 0 9.985 4.47 9.985 9.985v53.363c0 5.514-4.471 9.985-9.986 9.985z" fill="url(#SVGID_4_)"/></g><g><path d="m84.333 361.396h-26.666c-7.18 0-13-5.82-13-13v-62c0-7.18 5.82-13 13-13h26.667c7.18 0 13 5.82 13 13v62c-.001 7.18-5.821 13-13.001 13z" fill="url(#SVGID_5_)"/><path d="m131.927 329.004-44.339-44.339c-1.824-2.389-4.694-3.936-7.931-3.936h-17.314c-5.515 0-9.985 4.471-9.985 9.985v53.363c0 3.238 1.548 6.107 3.936 7.931l75.634 75.634v-98.638z" fill="url(#SVGID_6_)"/><path d="m79.657 354.063h-17.314c-5.515 0-9.985-4.47-9.985-9.985v-53.363c0-5.515 4.47-9.985 9.985-9.985h17.315c5.515 0 9.985 4.47 9.985 9.985v53.363c0 5.514-4.471 9.985-9.986 9.985z" fill="url(#SVGID_7_)"/></g><g><path d="m84.333 465.742h-26.666c-7.18 0-13-5.82-13-13v-62c0-7.18 5.82-13 13-13h26.667c7.18 0 13 5.82 13 13v62c-.001 7.18-5.821 13-13.001 13z" fill="url(#SVGID_8_)"/><path d="m131.928 433.352v64.08h-34.56l-41.07-41.08c-2.39-1.82-3.94-4.69-3.94-7.93v-53.36c0-5.52 4.47-9.99 9.99-9.99h17.31c3.24 0 6.11 1.55 7.93 3.94z" fill="url(#SVGID_9_)"/><path d="m79.657 458.409h-17.314c-5.515 0-9.985-4.47-9.985-9.985v-53.364c0-5.515 4.47-9.985 9.985-9.985h17.315c5.515 0 9.985 4.47 9.985 9.985v53.363c0 5.515-4.471 9.986-9.986 9.986z" fill="url(#SVGID_10_)"/></g></g><path d="m10.073 161.148 121.854 121.855v-139.188h-121.854z" fill="url(#SVGID_11_)"/><path d="m134.417 161.149h-126.834c-4.188 0-7.583-3.395-7.583-7.583v-14.833c0-4.188 3.395-7.583 7.583-7.583h126.833c4.188 0 7.583 3.395 7.583 7.583v14.833c.001 4.187-3.394 7.583-7.582 7.583z" fill="url(#SVGID_12_)"/></g><g><path d="m482.155 497.432h-104.082v-353.617h121.855v335.845c-.001 9.816-7.958 17.772-17.773 17.772z" fill="url(#SVGID_13_)"/><g><g><path d="m452.333 257.05h-26.667c-7.18 0-13-5.82-13-13v-62c0-7.18 5.82-13 13-13h26.667c7.18 0 13 5.82 13 13v62c0 7.18-5.82 13-13 13z" fill="url(#SVGID_14_)"/><path d="m499.927 224.658-44.339-44.339c-1.824-2.389-4.694-3.936-7.931-3.936h-17.315c-5.515 0-9.985 4.471-9.985 9.985v53.363c0 3.238 1.548 6.107 3.936 7.931l75.634 75.634z" fill="url(#SVGID_15_)"/><path d="m447.657 249.717h-17.315c-5.515 0-9.985-4.47-9.985-9.985v-53.363c0-5.515 4.47-9.985 9.985-9.985h17.315c5.515 0 9.985 4.47 9.985 9.985v53.363c.001 5.514-4.47 9.985-9.985 9.985z" fill="url(#SVGID_16_)"/></g><g><path d="m452.333 361.396h-26.667c-7.18 0-13-5.82-13-13v-62c0-7.18 5.82-13 13-13h26.667c7.18 0 13 5.82 13 13v62c0 7.18-5.82 13-13 13z" fill="url(#SVGID_17_)"/><path d="m499.927 329.004-44.339-44.339c-1.824-2.389-4.694-3.936-7.931-3.936h-17.315c-5.515 0-9.985 4.471-9.985 9.985v53.363c0 3.238 1.548 6.107 3.936 7.931l75.634 75.634z" fill="url(#SVGID_18_)"/><path d="m447.657 354.063h-17.315c-5.515 0-9.985-4.47-9.985-9.985v-53.363c0-5.515 4.47-9.985 9.985-9.985h17.315c5.515 0 9.985 4.47 9.985 9.985v53.363c.001 5.514-4.47 9.985-9.985 9.985z" fill="url(#SVGID_19_)"/></g><g><path d="m452.333 465.742h-26.667c-7.18 0-13-5.82-13-13v-62c0-7.18 5.82-13 13-13h26.667c7.18 0 13 5.82 13 13v62c0 7.18-5.82 13-13 13z" fill="url(#SVGID_20_)"/><path d="m499.928 433.352v46.308c0 9.815-7.957 17.772-17.772 17.772h-16.788l-41.07-41.08c-2.39-1.82-3.94-4.69-3.94-7.93v-53.36c0-5.517 4.473-9.99 9.99-9.99h17.31c3.24 0 6.11 1.55 7.93 3.94z" fill="url(#SVGID_21_)"/><path d="m447.657 458.409h-17.315c-5.515 0-9.985-4.47-9.985-9.985v-53.364c0-5.515 4.47-9.985 9.985-9.985h17.315c5.515 0 9.985 4.47 9.985 9.985v53.363c.001 5.515-4.47 9.986-9.985 9.986z" fill="url(#SVGID_22_)"/></g></g><path d="m378.073 161.148 121.854 121.855v-139.188h-121.854z" fill="url(#SVGID_23_)"/><path d="m502.417 161.149h-126.834c-4.188 0-7.583-3.395-7.583-7.583v-14.833c0-4.188 3.395-7.583 7.583-7.583h126.833c4.188 0 7.583 3.395 7.583 7.583v14.833c.001 4.187-3.394 7.583-7.582 7.583z" fill="url(#SVGID_24_)"/></g><path d="m482.155 497.432h-104.082v-353.617h121.855v335.845c-.001 9.816-7.958 17.772-17.773 17.772z" fill="url(#SVGID_25_)"/><path d="m397.29 497.432h-284.58v-378.895c0-10.623 8.612-19.235 19.235-19.235h246.11c10.623 0 19.235 8.612 19.235 19.235z" fill="url(#SVGID_26_)"/><path d="m397.29 118.542v231.92l-222.12-220.87c-3.55-1.95-5.03-5.72-5.03-10.06v-20.23h207.92c10.62 0 19.23 8.61 19.23 19.24z" fill="url(#SVGID_27_)"/><path d="m345 497.432h-180v-161.848c0-5.551 4.5-10.052 10.052-10.052h159.896c5.551 0 10.052 4.5 10.052 10.052z" fill="url(#SVGID_28_)"/><path d="m327 497.432h-144v-146.065c0-4.709 3.817-8.526 8.526-8.526h126.948c4.709 0 8.526 3.817 8.526 8.526z" fill="url(#SVGID_29_)"/><g><path d="m329.906 131h-42.852v42.852c0 6.336-5.136 11.472-11.472 11.472h-41.165c-6.336 0-11.472-5.136-11.472-11.472v-42.852h-42.852c-6.336 0-11.472-5.136-11.472-11.472v-41.165c0-6.336 5.136-11.472 11.472-11.472h42.852v-42.851c0-6.336 5.136-11.472 11.472-11.472h41.165c6.336 0 11.472 5.136 11.472 11.472v42.852h42.852c6.336 0 11.472 5.136 11.472 11.472v41.165c0 6.335-5.136 11.471-11.472 11.471z" fill="url(#SVGID_30_)"/><path d="m275.582 185.324h-20.582v-172.757h20.582c6.336 0 11.472 5.136 11.472 11.472v149.812c0 6.336-5.136 11.473-11.472 11.473z" fill="url(#SVGID_31_)"/><path d="m341.378 78.363v20.582h-172.756v-20.582c0-6.336 5.136-11.472 11.472-11.472h149.812c6.336 0 11.472 5.136 11.472 11.472z" fill="url(#SVGID_32_)"/></g><path d="m318.474 342.841h-65.934v154.591h74.46v-146.065c0-4.709-3.817-8.526-8.526-8.526z" fill="url(#SVGID_33_)"/><path d="m10.073 427.643v52.018c0 9.815 7.957 17.772 17.772 17.772h454.31c9.815 0 17.772-7.957 17.772-17.772v-52.018z" fill="url(#SVGID_34_)"/><path d="m112.71 282.014 215.419 215.419h69.161v-224.037h-284.58z" fill="url(#SVGID_35_)"/><path d="m398.795 280.508h-287.59c-6.188 0-11.205-5.016-11.205-11.205v-7.591c0-6.188 5.016-11.205 11.205-11.205h287.591c6.188 0 11.205 5.016 11.205 11.205v7.591c-.001 6.189-5.017 11.205-11.206 11.205z" fill="url(#SVGID_36_)"/></g></svg>